<?xml version="1.0" standalone="no"?>
<!DOCTYPE svg PUBLIC "-//W3C//DTD SVG 20010904//EN"
 "http://www.w3.org/TR/2001/REC-SVG-20010904/DTD/svg10.dtd">
<svg version="1.0" xmlns="http://www.w3.org/2000/svg"
 width="700.000000pt" height="700.000000pt" viewBox="0 0 700.000000 700.000000"
 preserveAspectRatio="xMidYMid meet">
<metadata>
Created by potrace 1.11, written by Peter Selinger 2001-2013
</metadata>
<g transform="translate(0.000000,700.000000) scale(0.100000,-0.100000)"
fill="#000000" stroke="none">
<path d="M3298 6996 c-1 -2 -41 -6 -88 -9 -135 -10 -263 -28 -440 -63 -153
-31 -376 -98 -557 -168 -114 -43 -362 -163 -449 -216 -37 -22 -68 -40 -70 -40
-5 0 -179 -115 -210 -138 -12 -10 -32 -24 -44 -32 -52 -35 -239 -189 -309
-254 -455 -428 -764 -905 -955 -1476 -61 -183 -123 -453 -142 -615 -3 -27 -7
-61 -10 -75 -26 -151 -25 -655 1 -825 3 -16 7 -50 10 -75 3 -25 7 -56 10 -70
3 -14 7 -38 10 -55 2 -16 9 -52 14 -80 162 -797 589 -1503 1221 -2017 127
-104 283 -218 298 -218 5 0 17 -9 27 -20 10 -11 21 -20 25 -20 4 0 48 -25 98
-55 89 -53 362 -189 432 -215 19 -7 49 -18 65 -25 83 -36 337 -115 455 -141
330 -72 486 -89 810 -89 184 0 360 9 415 20 11 2 45 7 75 11 77 9 94 11 127
18 15 4 42 9 58 11 83 14 297 69 410 106 666 220 1237 620 1676 1179 68 85
157 210 184 257 6 10 23 38 39 63 65 99 213 390 260 510 10 25 23 56 28 70 30
77 93 281 119 387 39 158 40 162 45 198 2 17 8 53 14 80 13 64 29 187 38 290
14 161 5 666 -13 718 -2 7 -6 35 -9 62 -6 49 -11 84 -21 135 -3 14 -8 39 -11
55 -51 285 -153 585 -299 880 -368 742 -998 1339 -1755 1663 -248 106 -575
201 -825 238 -27 4 -52 8 -55 9 -3 1 -41 5 -85 10 -44 4 -89 10 -100 12 -26 4
-512 12 -517 9z"/>
</g>
</svg>
