<?xml version="1.0" encoding="iso-8859-1"?>
<!-- Generator: Adobe Illustrator 19.0.0, SVG Export Plug-In . SVG Version: 6.00 Build 0)  -->
<svg version="1.1" id="Layer_1" xmlns="http://www.w3.org/2000/svg" xmlns:xlink="http://www.w3.org/1999/xlink" x="0px" y="0px"
	 viewBox="0 0 495 495" style="enable-background:new 0 0 495 495;" xml:space="preserve">
<g>
	<path style="fill:#3D9AE2;" d="M422.55,72.45C375.83,25.73,313.66,0,247.5,0v75.83c45.89,0,89,17.85,121.41,50.26
		c32.41,32.4,50.26,75.52,50.26,121.41s-17.85,89.01-50.26,121.41c-32.41,32.41-75.52,50.26-121.41,50.26V495
		c66.16,0,128.33-25.73,175.05-72.45S495,313.66,495,247.5C495,181.34,469.27,119.17,422.55,72.45z"/>
	<path style="fill:#FFEB99;" d="M343.33,247.5c0,52.84-42.99,95.83-95.83,95.83v75.84c45.89,0,89-17.85,121.41-50.26
		c32.41-32.4,50.26-75.52,50.26-121.41s-17.85-89.01-50.26-121.41C336.5,93.68,293.39,75.83,247.5,75.83v75.84
		C300.34,151.67,343.33,194.66,343.33,247.5z"/>
	<path style="fill:#FF0C38;" d="M343.33,247.5c0-52.84-42.99-95.83-95.83-95.83v191.66C300.34,343.33,343.33,300.34,343.33,247.5z"
		/>
	<path style="fill:#78B9EB;" d="M126.09,368.91c-32.41-32.4-50.26-75.52-50.26-121.41s17.85-89.01,50.26-121.41
		c32.41-32.41,75.52-50.26,121.41-50.26V0C181.34,0,119.17,25.73,72.45,72.45S0,181.34,0,247.5c0,66.16,25.73,128.33,72.45,175.05
		S181.34,495,247.5,495v-75.83C201.61,419.17,158.5,401.32,126.09,368.91z"/>
	<path style="fill:#FFF5CC;" d="M75.83,247.5c0,45.89,17.85,89.01,50.26,121.41c32.41,32.41,75.52,50.26,121.41,50.26v-75.84
		c-52.84,0-95.83-42.99-95.83-95.83c0-52.84,42.99-95.83,95.83-95.83V75.83c-45.89,0-89,17.85-121.41,50.26
		C93.68,158.49,75.83,201.61,75.83,247.5z"/>
	<path style="fill:#FF3F62;" d="M151.67,247.5c0,52.84,42.99,95.83,95.83,95.83V151.67C194.66,151.67,151.67,194.66,151.67,247.5z"
		/>
</g>
<g>
</g>
<g>
</g>
<g>
</g>
<g>
</g>
<g>
</g>
<g>
</g>
<g>
</g>
<g>
</g>
<g>
</g>
<g>
</g>
<g>
</g>
<g>
</g>
<g>
</g>
<g>
</g>
<g>
</g>
</svg>
