<?xml version="1.0" encoding="iso-8859-1"?>
<!-- Generator: Adobe Illustrator 19.0.0, SVG Export Plug-In . SVG Version: 6.00 Build 0)  -->
<svg version="1.1" id="Layer_1" xmlns="http://www.w3.org/2000/svg" xmlns:xlink="http://www.w3.org/1999/xlink" x="0px" y="0px"
	 viewBox="0 0 512.001 512.001" style="enable-background:new 0 0 512.001 512.001;" xml:space="preserve">
<g>
	<path style="fill:#FFFFFF;" d="M465.453,256.001c0-115.493-93.961-209.454-209.454-209.454S46.545,140.506,46.545,256.001
		s93.959,209.454,209.454,209.454S465.453,371.493,465.453,256.001z M255.999,395.637c-76.995,0-139.636-62.641-139.636-139.636
		s62.641-139.636,139.636-139.636s139.636,62.641,139.636,139.636S332.995,395.637,255.999,395.637z"/>
	<path style="fill:#FFFFFF;" d="M162.909,256.001c0,51.33,41.76,93.091,93.091,93.091s93.091-41.76,93.091-93.091
		s-41.76-93.091-93.091-93.091S162.909,204.67,162.909,256.001z M255.999,217.213c21.423,0,38.788,17.366,38.788,38.788
		c0,21.423-17.365,38.788-38.788,38.788s-38.788-17.365-38.788-38.788C217.211,234.579,234.576,217.213,255.999,217.213z"/>
</g>
<path id="SVGCleanerId_0" style="fill:#FF0C38;" d="M255.999,512v-46.545c-115.494,0-209.454-93.961-209.454-209.454
	S140.505,46.547,255.999,46.547V0.001C114.841,0.001,0,114.843,0,256.001S114.841,512,255.999,512z"/>
<path style="fill:#FF6243;" d="M465.452,256.471c-0.667,115.491-95.167,208.908-210.659,208.242l-0.268,46.544
	c141.156,0.815,256.657-113.361,257.472-254.518C512.811,115.584,397.156,0.816,255.999,0.001v46.545
	C371.491,47.212,466.119,140.978,465.452,256.471z"/>
<path id="SVGCleanerId_1" style="fill:#FF0C38;" d="M162.909,256.001c0-51.33,41.76-93.091,93.091-93.091v-46.545
	c-76.995,0-139.636,62.641-139.636,139.636s62.641,139.636,139.636,139.636v-46.545
	C204.669,349.091,162.909,307.331,162.909,256.001z"/>
<path style="fill:#FF6243;" d="M255.999,116.365v46.545c51.33,0,93.091,41.76,93.091,93.091s-41.76,93.091-93.091,93.091v46.545
	c76.995,0,139.636-62.641,139.636-139.636S332.995,116.365,255.999,116.365z"/>
<path id="SVGCleanerId_2" style="fill:#FF0C38;" d="M255.999,294.788v-77.576c-21.423,0-38.788,17.366-38.788,38.788
	S234.576,294.788,255.999,294.788z"/>
<g>
	<path style="fill:#FF6243;" d="M294.787,256.001c0-21.422-17.365-38.788-38.788-38.788v77.576
		C277.422,294.788,294.787,277.422,294.787,256.001z"/>
	<path style="fill:#FF6243;" d="M511.997,256.739C512.811,115.584,397.156,0.816,255.999,0.001v46.545
		c115.491,0.667,210.12,94.433,209.452,209.924s-95.167,208.908-210.659,208.242l-0.005,0.726
		c-114.936-0.656-208.242-94.35-208.242-209.438c0-115.494,93.959-209.454,209.454-209.454V0.001C114.841,0.001,0,114.843,0,256.001
		S114.841,512,255.999,512v-0.752C396.482,511.258,511.185,397.402,511.997,256.739z"/>
	<path style="fill:#FF6243;" d="M116.363,256.001c0,76.995,62.641,139.636,139.636,139.636s139.636-62.641,139.636-139.636
		s-62.641-139.636-139.636-139.636S116.363,179.005,116.363,256.001z M349.09,256.001c0,51.33-41.76,93.091-93.091,93.091
		s-93.091-41.76-93.091-93.091s41.76-93.091,93.091-93.091S349.09,204.67,349.09,256.001z"/>
	<circle style="fill:#FF6243;" cx="255.999" cy="255.999" r="38.788"/>
</g>
<g>
	<path id="SVGCleanerId_0_1_" style="fill:#FF0C38;" d="M255.999,512v-46.545c-115.494,0-209.454-93.961-209.454-209.454
		S140.505,46.547,255.999,46.547V0.001C114.841,0.001,0,114.843,0,256.001S114.841,512,255.999,512z"/>
</g>
<g>
	<path id="SVGCleanerId_1_1_" style="fill:#FF0C38;" d="M162.909,256.001c0-51.33,41.76-93.091,93.091-93.091v-46.545
		c-76.995,0-139.636,62.641-139.636,139.636s62.641,139.636,139.636,139.636v-46.545
		C204.669,349.091,162.909,307.331,162.909,256.001z"/>
</g>
<g>
	<path id="SVGCleanerId_2_1_" style="fill:#FF0C38;" d="M255.999,294.788v-77.576c-21.423,0-38.788,17.366-38.788,38.788
		S234.576,294.788,255.999,294.788z"/>
</g>
<g>
</g>
<g>
</g>
<g>
</g>
<g>
</g>
<g>
</g>
<g>
</g>
<g>
</g>
<g>
</g>
<g>
</g>
<g>
</g>
<g>
</g>
<g>
</g>
<g>
</g>
<g>
</g>
<g>
</g>
</svg>
